<svg width="40" height="40" viewBox="0 0 40 40" fill="none" xmlns="http://www.w3.org/2000/svg">
<g clip-path="url(#clip0_1108_1535)">
<path d="M25.6952 11.863C25.586 11.5585 25.2506 11.4001 24.9458 11.5093C24.6413 11.6186 24.4829 11.954 24.5921 12.2586C24.7418 12.6761 24.0731 12.9178 23.9228 12.4989C23.8135 12.1943 23.4782 12.0359 23.1734 12.1452C22.8688 12.2544 22.7105 12.59 22.8197 12.8946C22.9574 13.2786 23.2365 13.5861 23.6055 13.7602C23.9624 13.9287 24.3927 13.9532 24.7732 13.8165C25.566 13.532 25.9796 12.6558 25.6952 11.863Z" fill="black"/>
<path d="M31.3084 9.88599C31.1992 9.58146 30.8639 9.42302 30.5591 9.53232C30.2544 9.64162 30.0962 9.97709 30.2054 10.2816C30.3583 10.708 29.6895 10.9495 29.536 10.5219C29.4268 10.2173 29.0915 10.059 28.7866 10.1683C28.4821 10.2776 28.3237 10.6131 28.433 10.9176C28.6522 11.5288 29.249 11.92 29.8721 11.926C30.4577 11.9317 31.0028 11.5818 31.252 11.0537C31.4262 10.6847 31.4462 10.27 31.3084 9.88599Z" fill="black"/>
<path d="M16.1864 16.5867C15.8783 16.4882 15.5483 16.6583 15.45 16.9666C15.399 17.1264 15.2273 17.2149 15.0676 17.1639C14.9095 17.1135 14.8199 16.9394 14.8703 16.7815C14.9687 16.4732 14.7987 16.1435 14.4904 16.045C14.1822 15.9466 13.8525 16.1167 13.754 16.4249C13.5082 17.1942 13.947 18.0311 14.7115 18.279C15.4763 18.527 16.3223 18.0871 16.5663 17.3231C16.6648 17.0148 16.4947 16.6851 16.1864 16.5867Z" fill="black"/>
<path d="M10.8152 14.9063C10.5071 14.8078 10.1772 14.9779 10.0788 15.2862C10.0278 15.4461 9.856 15.5344 9.69646 15.4836C9.53803 15.433 9.44849 15.2596 9.49912 15.1011C9.59756 14.7928 9.42748 14.4632 9.1192 14.3647C8.81107 14.2663 8.4813 14.4364 8.38278 14.7446C8.13755 15.5118 8.5745 16.3554 9.33982 16.5998C10.1057 16.8442 10.9506 16.4082 11.1951 15.6427C11.2936 15.3344 11.1235 15.0046 10.8152 14.9063Z" fill="black"/>
<path d="M20.4254 2.75188C20.2532 1.81883 19.4019 1.14164 18.4013 1.14164C18.0272 1.14164 17.6561 1.23375 17.3073 1.41101C16.8677 1.03882 16.3364 0.832336 15.7939 0.832336C14.9046 0.832336 14.1368 1.3825 13.8831 2.20149C13.6892 2.82766 13.5495 4.49744 16.4344 6.47401C16.5858 6.57776 16.7954 6.60651 16.9747 6.53799C19.4018 5.61104 20.6917 4.19564 20.4254 2.75188ZM16.8442 5.32877C15.2242 4.14907 14.8234 3.12696 15.0027 2.54813C15.105 2.21774 15.4156 2.00422 15.7939 2.00422C16.1483 2.00422 16.4928 2.1893 16.7639 2.52524C16.9639 2.77297 17.325 2.81579 17.5774 2.62157C17.8393 2.42 18.1242 2.31352 18.4014 2.31352C18.8439 2.31352 19.2023 2.58125 19.273 2.96454C19.3823 3.55751 18.8014 4.51587 16.8442 5.32877Z" fill="black"/>
<path d="M13.5515 4.99002C13.2566 4.40329 12.6886 4.05298 12.0317 4.05298C11.3757 4.05298 10.7771 4.40665 10.4063 4.98572C9.36136 4.87189 8.30432 5.59838 8.28533 6.70284C8.27885 7.07729 8.43096 8.95176 12.0709 9.07754C12.0777 9.07777 12.0844 9.07785 12.0912 9.07785C12.276 9.07785 12.4504 8.99059 12.5612 8.84176C14.0807 6.80026 13.8338 5.55228 13.5515 4.99002ZM11.8017 7.89019C10.1814 7.77417 9.44847 7.21807 9.45706 6.72315C9.46198 6.43877 9.72987 6.14463 10.1698 6.14463C10.288 6.14463 10.4123 6.16635 10.5391 6.20924C10.8407 6.31112 11.1686 6.15346 11.2773 5.85432C11.446 5.39025 11.7777 5.22494 12.0318 5.22494C12.1537 5.22494 12.377 5.26275 12.5043 5.51627C12.6992 5.90432 12.6051 6.72237 11.8017 7.89019Z" fill="black"/>
<path d="M31.0381 13.5291C30.0384 12.6853 29.0983 12.2574 28.244 12.2574C27.4751 12.2574 26.7943 12.6118 26.3272 13.2551C25.9542 13.7691 25.7402 14.434 25.7402 15.0801C25.7402 15.0826 25.7405 15.0851 25.7405 15.0876C25.7412 15.1325 25.7471 15.1778 25.758 15.2215C25.7585 15.2236 25.7587 15.2258 25.7592 15.228C25.7595 15.2292 25.7599 15.2304 25.7602 15.2317C25.7605 15.2329 25.7609 15.2342 25.7613 15.2354C26.1245 16.6125 27.0422 17.4344 28.2174 17.4344C29.0455 17.4344 29.8609 17.0108 30.3453 16.329C30.6928 15.84 30.8294 15.2814 30.7468 14.7208C30.995 14.5075 31.1196 14.3413 31.1339 14.3216C31.3146 14.0732 31.2728 13.7274 31.0381 13.5291ZM29.3903 15.6503C29.126 16.0223 28.6656 16.2626 28.2176 16.2626C27.8427 16.2626 27.5242 16.0948 27.2805 15.7776C27.7349 15.7974 28.1932 15.7717 28.6407 15.6887C28.9291 15.6351 29.2135 15.5581 29.4881 15.4548C29.494 15.4526 29.5006 15.4505 29.5066 15.4483C29.4721 15.5249 29.4313 15.5926 29.3903 15.6503ZM27.5694 14.612C27.376 14.612 27.1809 14.6016 26.9885 14.5817C26.9813 14.581 26.974 14.5799 26.9669 14.5791C27.1681 13.7219 27.8739 13.4293 28.2442 13.4293C28.6732 13.4293 29.1855 13.63 29.7471 14.0147C29.3438 14.289 28.6416 14.612 27.5694 14.612Z" fill="black"/>
<path d="M11.472 16.8593C10.6331 16.8593 9.7236 17.2983 8.76859 18.1642C8.54093 18.3705 8.5114 18.7177 8.70078 18.9596C8.7193 18.9833 8.84023 19.1323 9.07156 19.32C9.01883 19.8401 9.16047 20.3523 9.48789 20.7964C9.95211 21.426 10.725 21.817 11.5049 21.817C12.6724 21.817 13.5537 21.0005 13.8639 19.6326C13.8644 19.6305 13.8649 19.6283 13.8654 19.6262C13.8764 19.5788 13.8808 19.5297 13.8799 19.4811C13.8799 19.4793 13.88 19.4773 13.88 19.4745C13.8345 18.1889 12.9214 16.8593 11.472 16.8593ZM11.5049 20.6451C11.0963 20.6451 10.6749 20.4314 10.431 20.1007C10.4097 20.0717 10.3883 20.0398 10.3678 20.0051C10.4129 20.0196 10.4585 20.033 10.504 20.0459C10.7835 20.1253 11.0699 20.1787 11.3589 20.2083C11.679 20.2411 12.0013 20.2444 12.3224 20.2248C12.3312 20.2243 12.3399 20.224 12.3487 20.2234C12.1309 20.4995 11.8448 20.6451 11.5049 20.6451ZM11.4408 19.0396C10.8202 18.9703 10.3745 18.777 10.0834 18.6009C10.6002 18.2264 11.0731 18.0311 11.472 18.0311C12.0827 18.0311 12.4593 18.5164 12.6197 19.0189C12.2292 19.0697 11.8328 19.0833 11.4408 19.0396Z" fill="black"/>
<path d="M39.7391 18.743C39.1685 16.205 37.7529 14.6184 36.0365 14.5825C35.5332 12.7246 34.855 10.9969 34.0583 9.58246C32.1096 6.12251 28.4873 4.34071 24.6055 4.9322C21.2457 5.44415 18.5913 7.64057 17.6454 10.6176C15.0004 9.338 12.0133 9.31933 9.33973 10.5915C6.40393 11.9885 4.20861 14.7527 3.27485 18.1464C3.20079 18.1405 3.12727 18.1368 3.05493 18.1368C1.33883 18.1365 0.174912 19.772 0.0178016 22.4046C-0.0921991 24.2471 0.312335 26.3074 1.09984 27.9159C1.99867 29.7518 3.33595 30.9045 4.88674 31.1916C5.01861 31.3726 5.15611 31.5471 5.29924 31.7148C5.94831 32.4753 6.70909 33.0915 7.56496 33.557C7.32456 34.216 7.09081 35.0508 6.95167 36.0387C6.56018 36.3418 5.72901 37.0428 5.32932 37.8114C5.18002 38.0986 5.29174 38.4523 5.57885 38.6016C5.86596 38.751 6.21971 38.6392 6.36901 38.3521C6.4762 38.146 6.64128 37.9333 6.82472 37.7334C6.82269 37.9173 6.82292 38.1036 6.8287 38.2949C6.83823 38.6123 7.09863 38.8632 7.41402 38.8632C7.41996 38.8632 7.42597 38.8632 7.43191 38.8629C7.75535 38.8532 8.00972 38.5832 7.99996 38.2597C7.99301 38.0281 7.99371 37.8034 7.99902 37.5837C8.21605 37.8179 8.39762 38.0618 8.46754 38.2691C8.56535 38.5589 8.90403 38.7405 9.21004 38.637C9.51669 38.5336 9.68137 38.2011 9.57794 37.8945C9.33043 37.1608 8.55621 36.4543 8.12504 36.1042C8.24621 35.2925 8.43723 34.6013 8.63559 34.0425C9.64825 34.4168 10.7663 34.6085 11.969 34.6085C12.1212 34.6085 12.2698 34.6071 12.4169 34.6049C12.273 35.1023 12.1397 35.6847 12.0469 36.3424C11.6557 36.6452 10.8237 37.3466 10.4238 38.1157C10.2745 38.4029 10.3862 38.7566 10.6733 38.9059C10.9604 39.0552 11.3142 38.9435 11.4635 38.6564C11.5707 38.4502 11.7358 38.2375 11.9192 38.0375C11.9171 38.2214 11.9173 38.4078 11.9231 38.5991C11.9326 38.9166 12.193 39.1675 12.5084 39.1675C12.5144 39.1675 12.5204 39.1674 12.5263 39.1672C12.8498 39.1575 13.1041 38.8874 13.0944 38.5639C13.0874 38.3322 13.0874 38.1068 13.0929 37.8873C13.3101 38.1217 13.4919 38.3658 13.5619 38.5732C13.6601 38.864 13.9976 39.0447 14.3044 38.9412C14.6111 38.8378 14.7758 38.5054 14.6723 38.1987C14.4251 37.466 13.6526 36.7603 13.2211 36.4097C13.33 35.682 13.4922 35.0589 13.6567 34.5598C17.7797 34.3135 19.5874 33.1829 20.3248 32.4776C21.4039 33.334 22.7166 33.9611 24.1684 34.3115C24.3656 34.8614 24.5645 35.5677 24.6904 36.4094C24.259 36.7599 23.486 37.4657 23.2387 38.1987C23.1353 38.5054 23.3 38.8378 23.6066 38.9412C23.9093 39.0435 24.247 38.8757 24.3491 38.5733C24.419 38.3661 24.6007 38.1219 24.8179 37.8877C24.8233 38.1073 24.8236 38.3323 24.8166 38.5639C24.8069 38.8874 25.0612 39.1575 25.3847 39.1672C25.3907 39.1674 25.3966 39.1675 25.4026 39.1675C25.718 39.1675 25.9783 38.9166 25.9879 38.5991C25.9936 38.4078 25.9939 38.2215 25.9918 38.0375C26.1752 38.2375 26.3403 38.4502 26.4475 38.6564C26.5969 38.9435 26.9505 39.0553 27.2376 38.9059C27.5248 38.7566 27.6365 38.4029 27.4872 38.1157C27.0876 37.3473 26.2567 36.6464 25.8651 36.3432C25.7693 35.6632 25.629 35.0599 25.4761 34.5424C25.8643 34.5863 26.2532 34.6089 26.641 34.6089C27.6913 34.6089 28.7323 34.4466 29.7276 34.1284C29.9587 34.7333 30.1827 35.4982 30.3183 36.4085C29.8871 36.7585 29.113 37.465 28.8654 38.1988C28.762 38.5054 28.9266 38.8379 29.2333 38.9413C29.5358 39.0435 29.8737 38.8759 29.9758 38.5734C30.0457 38.3662 30.2272 38.1223 30.4442 37.8882C30.4494 38.1079 30.4502 38.3324 30.4434 38.564C30.4336 38.8875 30.688 39.1575 31.0114 39.1673C31.0174 39.1675 31.0234 39.1675 31.0293 39.1675C31.3448 39.1675 31.6051 38.9167 31.6146 38.5992C31.6203 38.4081 31.6207 38.2218 31.6188 38.0379C31.8021 38.2379 31.9672 38.4504 32.0743 38.6564C32.2236 38.9436 32.5774 39.0553 32.8645 38.906C33.1516 38.7567 33.2632 38.4029 33.1139 38.1158C32.7145 37.3477 31.8843 36.6472 31.4925 36.3437C31.3445 35.2896 31.0874 34.4048 30.8216 33.709C32.2693 33.0529 33.4751 32.0823 34.4297 30.8059C36.6686 29.7007 38.3345 27.822 39.2524 25.3621C40.0356 23.2632 40.213 20.8506 39.7391 18.743ZM2.15227 27.4006C1.44968 25.9656 1.08898 24.1241 1.1875 22.4744C1.27773 20.9627 1.80422 19.3487 3.00977 19.3092C2.93555 19.7123 2.87868 20.1192 2.82946 20.5261C2.82758 20.5417 2.82555 20.5574 2.82376 20.573C2.40696 24.0455 2.79266 27.1569 3.92884 29.5673C3.32509 29.1764 2.6961 28.5113 2.15227 27.4006ZM33.5617 29.9991C33.5549 30.0086 33.5493 30.0188 33.5431 30.0287C32.536 31.4001 31.212 32.3763 29.5846 32.9428C28.047 33.4782 26.3719 33.5807 24.7403 33.2391C23.1439 32.9048 21.7301 32.2058 20.6518 31.2175C20.2389 30.8392 19.8789 30.4216 19.5759 29.9732C19.4961 29.8552 19.4195 29.7355 19.3478 29.6134C19.1871 29.339 18.8202 29.2433 18.546 29.4041C18.2766 29.5619 18.175 29.9297 18.3367 30.2058C18.6449 30.732 19.0165 31.2216 19.436 31.6641C19.4424 31.6709 19.4485 31.6779 19.4549 31.6846C18.8092 32.2612 16.8881 33.4366 11.969 33.4366C9.76161 33.4366 7.64433 32.6574 6.19049 30.9541C3.90986 28.282 3.60212 24.3357 3.95634 20.9891C3.95673 20.9852 3.9572 20.9812 3.95767 20.9773C4.03095 20.321 4.12025 19.6655 4.26501 19.0206C5.01353 15.6962 7.05769 12.9749 9.84356 11.6494C12.3839 10.4406 15.2487 10.5591 17.7069 11.9735C19.2058 12.8359 19.7615 14.7776 19.813 16.393C19.8197 16.6044 19.819 16.8161 19.8119 17.0275C19.7467 18.9668 19.1066 21.306 18.0557 23.4453C17.3781 24.8245 17.1674 26.3427 17.4463 27.8358C17.5048 28.1493 17.8163 28.3629 18.1298 28.3042C18.4417 28.2458 18.6565 27.9322 18.5982 27.6207C18.5264 27.2361 18.493 26.8444 18.4996 26.4531C18.5142 25.5982 18.7188 24.753 19.1075 23.9619C19.7665 22.6204 20.8865 19.9408 20.9831 17.0669C21.0429 15.2832 20.6622 13.4012 19.4822 12.009C19.4142 11.9288 18.6715 11.2791 18.6829 11.2367C19.4164 8.55089 21.7707 6.54924 24.7823 6.09033C27.438 5.68572 31.0012 6.54158 33.0375 10.1572C33.8378 11.5782 34.5209 13.3479 35.0109 15.2717C35.8149 18.4281 36.1071 21.8357 35.5333 25.0558C35.2204 26.8122 34.6179 28.5462 33.5617 29.9991ZM38.1547 24.9522C37.7477 26.0431 37.0186 27.4079 35.7264 28.5443C36.0591 27.7782 36.3272 26.9491 36.5301 26.0601C37.3004 22.7171 37.0961 19.1241 36.3368 15.7976C36.3365 15.7959 36.3361 15.7941 36.3357 15.7923C37.3453 16.0198 38.1927 17.2053 38.5962 18.9998C39.0213 20.8912 38.8605 23.0607 38.1547 24.9522Z" fill="black"/>
</g>
<defs>
<clipPath id="clip0_1108_1535">
<rect width="40" height="40" fill="white"/>
</clipPath>
</defs>
</svg>
