<svg width="95" height="140" viewBox="0 0 95 140" fill="none" xmlns="http://www.w3.org/2000/svg">
<path d="M89.9997 32.398C80.1916 18.188 89.8199 33.1879 73.7555 43.6741C78.2861 36.3886 76.1811 27.0371 71.792 20.1954C68.718 16.4341 67.2854 11.9048 67.7907 7.06478C67.9104 6.65354 67.2854 6.42775 67.1063 6.85598C53.1709 8.29 39.0629 16.6875 41.9465 32.599C41.4836 32.2947 41.0525 31.9542 40.6618 31.5699C38.9425 21.0907 42.7088 9.59095 51.768 3.56891C52.0434 3.38063 51.9429 2.89012 51.5798 2.89507C43.791 0.718557 33.9999 -1.04743 27.6268 5.25491C26.2373 6.66558 25.0171 8.55118 25.1353 10.5833C15.2812 9.75234 10.4864 18.21 18.1641 25.2116C11.6869 23.9807 4.86573 23.4053 2.94049 15.7815C2.84989 15.4304 2.40326 15.4813 2.28081 15.7397C1.38614 21.9868 2.23056 30.247 7.07622 35.1146C8.15209 36.1621 9.42544 36.9981 10.4199 38.1291C11.5503 39.4152 11.8044 40.9844 12.0507 42.6223C12.7826 49.0981 18.0006 53.3478 23.7621 55.4677C29.5966 58.0816 31.2076 65.4449 36.7207 68.2337C42.4193 69.8624 45.7722 63.1792 47.7548 58.8927C44.0409 70.4697 41.5975 82.4239 39.9568 94.4616C39.455 87.8174 38.1236 81.1569 34.879 75.258C33.7656 73.5947 30.3342 66.4642 28.6305 70.9255C28.7246 78.4226 33.6007 85.2063 38.8144 90.2537C39.1528 93.0141 39.4606 95.8178 39.4203 98.5959C24.5046 80.1235 16.0916 91.6997 39.2618 99.9125C37.7888 112.298 37.0796 124.761 36.5784 137.22C36.725 137.842 36.0002 139.839 37.0265 139.595C50.0757 140.519 59.566 129.841 66.6264 120.236C68.0958 119.773 77.32 116.289 76.5888 114.913C71.0722 113.498 65.2016 113.661 59.8052 115.525C53.4852 117.896 46.8983 121.684 43.5985 127.792C40.9824 129.506 38.6162 131.799 37.3981 134.726C37.8815 123.151 38.5851 111.577 39.9526 100.07C42.0965 98.3942 56.4233 84.301 53.362 82.7049C47.5665 86.2404 42.8914 91.5893 40.2208 97.8357C41.9989 83.5939 44.84 69.4356 49.4995 55.8414C49.5123 62.7574 50.053 70.2283 54.2157 76.0232C56.3653 79.0682 59.6127 82.3467 63.6954 81.0762C67.3753 79.9317 69.3791 76.1654 72.7291 74.4575C74.8526 73.1622 77.3264 73.7341 79.631 73.4142C82.9789 72.2364 81.2136 67.8472 79.3351 66.0763C88.9196 70.1887 94.3768 62.3108 89.5559 53.7901C97.0856 49.377 94.2522 38.287 89.9997 32.398ZM33.079 82.1847C31.1566 78.7659 28.7947 74.5672 29.4968 70.5659C30.1084 69.5878 30.9301 70.7238 31.3534 71.2469C35.4495 76.3311 37.6494 82.6929 38.6375 89.0865C36.519 87.0183 34.6362 84.7009 33.079 82.1847ZM53.3691 119.354C59.9227 115.294 67.9167 113.585 75.4846 115.37C66.1585 121.569 54.1449 120.725 44.8273 127.015C46.8113 123.743 50.1585 121.272 53.3691 119.354ZM48.229 125.959C53.5744 122.976 59.6219 122.061 65.4698 120.584C58.7513 129.705 49.6163 139.653 37.2771 138.903C37.1426 132.478 43.1696 128.544 48.229 125.959ZM28.6028 93.7722C26.8291 92.9823 23.3254 87.9894 27.7273 89.7363C32.2537 91.5766 35.957 95.139 38.8441 99.0086C35.3143 97.5278 31.7795 95.914 28.6028 93.7722ZM49.7989 86.1286C50.8238 85.2665 51.9153 84.49 53.0407 83.7652C50.3284 89.5268 45.1083 93.93 40.7298 98.4699C42.7194 93.7106 45.8501 89.4503 49.7989 86.1286ZM74.5871 43.9473C79.3443 40.656 83.0391 36.0347 84.5864 30.4034C84.8412 42.1559 77.5415 51.2109 65.1867 48.764C68.5785 47.6853 71.6971 46.0587 74.5871 43.9473ZM68.064 15.4077C69.1278 17.9417 71.0007 20.0439 72.3016 22.4519C76.0941 29.2199 77.3993 38.8327 71.8224 44.9659C69.3465 46.5436 66.6137 47.6704 63.786 48.4419C61.3652 47.795 59.0571 46.7538 56.9053 45.4684C55.9243 44.1151 54.4556 43.0951 52.8099 42.7122C57.2465 41.1685 61.5627 37.3513 62.5968 32.7101C61.39 30.6504 58.546 29.6368 56.4474 28.5419C56.2683 28.3699 55.93 28.3706 55.8705 28.6792C55.0197 32.9034 54.3416 37.4164 51.744 40.9809C53.1716 36.7801 53.2785 32.1758 51.9825 27.9098C51.4304 27.11 47.1015 30.0113 45.9562 30.288C45.7389 30.4126 45.6434 30.6957 45.8437 30.8918C48.1058 33.0088 49.249 36.0659 49.8364 39.0486C49.3296 37.6938 48.5588 36.4382 47.5141 35.4366C42.1489 28.8533 48.7492 20.2853 54.7479 16.7766C59.045 14.2193 64.1038 12.4208 67.0773 8.16543C67.027 10.6194 67.1013 13.1151 68.064 15.4077ZM49.5491 53.9084C49.5335 53.9147 49.5207 53.9253 49.5066 53.9338C49.5222 53.8765 49.5377 53.8192 49.5526 53.7618C49.5512 53.8107 49.5505 53.8595 49.5491 53.9084ZM51.4106 28.4944C52.6153 32.771 52.4022 37.3923 50.7976 41.5316C50.6377 37.6485 49.3785 33.5963 46.6803 30.7247C48.2573 29.9815 49.8343 29.2383 51.4106 28.4944ZM56.4658 29.3162C58.4321 30.2583 60.4161 31.2549 61.9626 32.822C60.3382 37.4978 56.2832 41.1402 51.5083 42.3548C54.7522 38.832 55.5463 33.8476 56.4658 29.3162ZM45.5167 18.3034C50.2158 11.3216 58.6706 8.89942 66.5662 7.66925C63.6012 11.9614 58.4646 13.6764 54.1852 16.2904C48.4682 19.7827 42.3924 27.2437 45.8316 34.1746C44.8917 33.6593 43.859 33.3451 42.7966 33.1631C41.5522 28.103 42.5672 22.5913 45.5167 18.3034ZM42.4172 13.2482C40.1416 18.6842 38.9977 24.7614 39.8315 30.6327C32.3981 20.6413 37.8412 9.85568 48.4612 5.38515C45.9824 7.62041 43.8109 10.1919 42.4172 13.2482ZM19.9421 25.7998C11.4922 19.6178 14.6823 10.3745 25.2542 11.2911C25.434 11.5622 25.9585 11.3704 25.8849 10.9754C25.475 7.13273 29.3099 4.26752 32.4661 2.89437C38.3671 0.453837 44.8662 1.87937 50.8068 3.42876C45.792 5.89194 40.3766 8.57383 37.5163 13.6453C34.0608 19.8209 35.8183 28.5072 41.2316 32.9798C36.0037 32.667 29.3694 34.2546 25.5048 29.7692C24.0092 27.999 22.091 26.6442 19.9421 25.7998ZM9.3398 36.1437C7.10454 34.4209 5.28476 32.2005 4.31293 29.525C7.34095 31.3745 9.66043 34.2482 10.8595 37.5707C10.3966 37.0554 9.87136 36.5897 9.3398 36.1437ZM12.1342 39.6417C11.3195 35.0374 8.17262 30.6504 3.97248 28.5822C2.77911 24.9646 2.66869 21.1099 2.70267 17.3309C6.35072 27.1793 16.7265 23.1448 23.3544 28.6034C25.0454 30.1351 26.3633 32.2126 28.7041 32.8255C33.7118 34.6304 39.1266 32.8524 44.1733 34.2185C52.5601 37.5884 50.3015 48.999 48.171 55.8421C47.214 57.8728 45.1486 59.493 43.1731 60.4386C40.4438 62.0475 38.1774 60.4244 36.6981 58.0512C35.0092 56.0381 33.0422 54.1249 30.6456 52.9804C27.9934 51.5344 24.9817 52.1063 22.1193 51.8833C14.8119 51.6745 13.1514 45.7105 12.1342 39.6417ZM38.0719 67.8196C32.7959 66.8995 30.6109 58.5105 25.5918 55.7536C23.2582 54.1405 20.3972 53.4539 18.1379 51.7198C21.8921 53.3478 26.0873 51.8989 29.8316 53.3874C37.4363 56.4784 37.8518 67.2095 47.1765 58.41C45.3114 62.1614 43.0054 67.8437 38.0719 67.8196ZM80.7458 71.3792C80.0132 73.7355 77.0666 72.4636 75.2688 72.906C69.7917 73.4566 67.4722 80.0648 62.1063 80.6395C66.0488 78.6314 67.2776 73.8325 67.0086 69.7116C71.7856 66.7162 76.5768 73.6046 80.8017 70.2814C80.842 70.6466 80.835 71.0147 80.7458 71.3792ZM79.0251 66.8131C79.6671 67.5436 80.3225 68.4829 80.6375 69.4816C78.5785 71.6185 75.8456 70.0131 73.6472 69.0399C71.4685 68.3137 67.984 67.6448 66.2944 69.5092C66.671 73.8367 65.1853 79.0356 60.656 80.5163C47.2989 74.1545 50.5577 55.3544 50.77 43.2367C58.7343 42.8092 57.5091 53.2451 62.1297 57.182C66.2336 60.944 72.0284 61.7452 76.6037 64.7463C77.4431 65.36 78.3378 65.98 79.0251 66.8131ZM92.8203 48.7512C92.167 50.6376 90.9305 52.7681 88.8523 53.2812C88.4786 53.3732 88.5572 53.8723 88.858 53.9586C91.3488 58.025 91.7253 65.004 86.0395 66.3701C81.6942 67.0595 77.7645 64.5566 74.1433 62.5854C63.575 58.1913 61.4275 58.0285 57.7214 46.7425C74.3592 55.3664 86.4422 45.375 85.3933 27.4646C90.2389 33.2821 95.4619 40.8535 92.8203 48.7512Z" fill="black"/>
<path d="M8.02936 63.1064C7.80994 63.1488 7.59335 63.2041 7.37464 63.2536C8.09094 62.5543 9.73235 60.1392 8.52412 59.4392C6.91668 59.9679 5.97742 61.9633 5.41683 63.4801C4.33247 62.9924 0.866321 61.9456 0.300781 63.318C0.867029 64.5291 2.72078 64.7903 3.94742 64.786C-0.473562 67.4297 4.80741 69.3549 5.92646 64.5772C10.0756 66.8847 12.0292 62.16 8.02936 63.1064ZM8.4774 60.1407C8.47599 60.1399 8.47457 60.1399 8.47316 60.1392C8.49864 60.1215 8.50218 60.1208 8.4774 60.1407ZM6.90182 61.9236C7.25573 61.3588 7.68466 60.8407 8.17871 60.3926C7.96 61.5534 7.24016 62.6088 6.24922 63.2472C6.42476 62.7872 6.63851 62.3434 6.90182 61.9236ZM3.21272 64.0683C2.55233 64.0074 1.89619 63.7894 1.3441 63.427C2.49217 63.33 3.66146 63.519 4.72459 63.9557C4.23125 64.0754 3.7188 64.115 3.21272 64.0683ZM4.71539 65.6566C4.40112 66.1429 3.44983 67.3752 2.91189 66.61C3.33163 65.818 4.39051 65.4223 5.09549 64.8738C4.99427 65.1456 4.87253 65.4089 4.71539 65.6566ZM8.05555 64.4625C7.57778 64.4441 7.11275 64.3316 6.67461 64.1511C7.29253 64.1065 9.25599 63.2041 9.47046 63.9189C9.40605 64.4965 8.4682 64.4781 8.05555 64.4625Z" fill="black"/>
<path d="M85.702 16.6613C86.4197 16.5551 87.1098 16.2656 87.703 15.8487C89.2977 20.4558 94.355 17.9806 89.665 15.8147C90.5391 15.9577 94.5694 14.4062 92.6321 13.508C91.0438 13.3685 89.4052 13.8866 88.0477 14.6928C87.5543 13.6134 85.6616 10.5415 84.326 11.1764C83.9303 12.4519 85.1633 13.8958 86.0863 14.6999C82.6959 13.6835 82.3229 17.1341 85.702 16.6613ZM90.7345 17.2855C90.8584 17.3974 90.9497 17.5248 90.8315 17.6685C89.8922 18.2071 88.9607 16.7561 88.5523 16.0455C89.304 16.4064 90.0642 16.7894 90.7345 17.2855ZM90.3155 14.4713C90.9129 14.3049 91.5308 14.2122 92.1515 14.2044C91.2151 14.9264 89.9984 15.223 88.8333 15.0644C89.3047 14.8174 89.7981 14.6136 90.3155 14.4713ZM85.2631 12.5921C85.1584 12.3804 85.0699 12.1617 85.0069 11.9338C85.9405 12.6274 86.7057 13.5441 87.2188 14.5881C86.3794 14.1528 85.68 13.4435 85.2631 12.5921ZM84.4152 15.2683C85.2398 15.2662 86.0651 15.3978 86.8791 15.5238C86.1564 15.8565 84.5525 16.5041 84.0747 15.567C84.0344 15.3398 84.217 15.2768 84.4152 15.2683Z" fill="black"/>
<path d="M56.2949 101.077C56.4103 101.077 56.5051 101.019 56.5688 100.935C57.2433 102.841 60.0888 101.397 59.0624 99.7185C58.5726 98.8932 57.3594 98.6589 56.6389 99.3165C56.435 99.2924 56.2121 99.5097 56.2737 99.7227C56.0514 100.076 55.6331 100.978 56.2949 101.077ZM57.3389 99.7008C58.2895 99.2881 59.2203 100.794 57.9129 101.16C57.2809 101.197 57.0933 100.433 57.0091 99.9337C57.0997 99.8431 57.2037 99.7617 57.3389 99.7008Z" fill="black"/>
</svg>
